<svg width="512" height="345" viewBox="0 0 512 345" fill="none" xmlns="http://www.w3.org/2000/svg">
<g clip-path="url(#clip0_234_24)">
<path d="M147.761 321.013C137.601 316.868 88.347 324.495 0 343.895C53.8688 302.29 77.4182 278.117 70.6479 271.378C42.392 243.254 25.7696 208.87 25.7696 171.759C25.7696 76.7539 134.706 -0.378052 268.885 -0.378052C403.064 -0.378052 512 76.7539 512 171.759C512 266.764 403.064 343.895 268.885 343.895C224.795 343.895 183.43 335.567 147.761 321.013Z" fill="#023872"/>
<mask id="mask0_234_24" style="mask-type:alpha" maskUnits="userSpaceOnUse" x="334" y="131" width="89" height="82">
<path d="M373.441 134.498L362.939 154.928L339.469 158.207C334.887 158.846 333.055 164.262 336.374 167.369L353.358 183.272L349.346 205.728C348.564 210.118 353.358 213.465 357.463 211.392L378.453 200.789L399.444 211.392C403.549 213.465 408.342 210.118 407.564 205.728L403.553 183.272L420.536 167.369C423.856 164.262 422.024 158.846 417.436 158.207L393.967 154.928L383.469 134.498C381.419 130.503 375.492 130.503 373.441 134.498Z" fill="white"/>
</mask>
<g mask="url(#mask0_234_24)">
<path d="M373.441 134.498L362.939 154.928L339.469 158.207C334.887 158.846 333.055 164.262 336.374 167.369L353.358 183.272L349.346 205.728C348.564 210.118 353.358 213.465 357.463 211.392L378.453 200.789L399.444 211.392C403.549 213.465 408.342 210.118 407.564 205.728L403.553 183.272L420.536 167.369C423.856 164.262 422.024 158.846 417.436 158.207L393.967 154.928L383.469 134.498C381.419 130.503 375.492 130.503 373.441 134.498Z" fill="#FF9E6E"/>
<path d="M373.441 134.498L362.939 154.928L339.469 158.207C334.887 158.846 333.055 164.262 336.374 167.369L353.358 183.272L349.346 205.728C348.564 210.118 353.358 213.465 357.463 211.392L378.453 200.789L399.444 211.392C403.549 213.465 408.342 210.118 407.564 205.728L403.553 183.272L420.536 167.369C423.856 164.262 422.024 158.846 417.436 158.207L393.967 154.928L383.469 134.498C381.419 130.503 375.492 130.503 373.441 134.498Z" fill="#FF9E6E"/>
</g>
<mask id="mask1_234_24" style="mask-type:alpha" maskUnits="userSpaceOnUse" x="221" y="131" width="88" height="82">
<path d="M259.809 134.498L249.312 154.928L225.842 158.207C221.259 158.846 219.423 164.262 222.747 167.369L239.726 183.272L235.719 205.728C234.933 210.118 239.726 213.465 243.831 211.392L264.826 200.789L285.816 211.392C289.921 213.465 294.714 210.118 293.933 205.728L289.926 183.272L306.905 167.369C310.228 164.262 308.393 158.846 303.805 158.207L280.335 154.928L269.842 134.498C267.792 130.503 261.859 130.503 259.809 134.498Z" fill="white"/>
</mask>
<g mask="url(#mask1_234_24)">
<path d="M259.809 134.498L249.312 154.928L225.842 158.207C221.259 158.846 219.423 164.262 222.747 167.369L239.726 183.272L235.719 205.728C234.933 210.118 239.726 213.465 243.831 211.392L264.826 200.789L285.816 211.392C289.921 213.465 294.714 210.118 293.933 205.728L289.926 183.272L306.905 167.369C310.228 164.262 308.393 158.846 303.805 158.207L280.335 154.928L269.842 134.498C267.792 130.503 261.859 130.503 259.809 134.498Z" fill="#FF9E6E"/>
<path d="M259.809 134.498L249.312 154.928L225.842 158.207C221.259 158.846 219.423 164.262 222.747 167.369L239.726 183.272L235.719 205.728C234.933 210.118 239.726 213.465 243.831 211.392L264.826 200.789L285.816 211.392C289.921 213.465 294.714 210.118 293.933 205.728L289.926 183.272L306.905 167.369C310.228 164.262 308.393 158.846 303.805 158.207L280.335 154.928L269.842 134.498C267.792 130.503 261.859 130.503 259.809 134.498Z" fill="#FF9E6E"/>
</g>
<mask id="mask2_234_24" style="mask-type:alpha" maskUnits="userSpaceOnUse" x="107" y="131" width="88" height="82">
<path d="M146.183 134.498L135.685 154.928L112.211 158.207C107.628 158.846 105.797 164.262 109.115 167.369L126.099 183.272L122.088 205.728C121.306 210.118 126.104 213.465 130.204 211.392L151.195 200.789L172.189 211.392C176.29 213.465 181.083 210.118 180.306 205.728L176.295 183.272L193.278 167.369C196.597 164.262 194.765 158.846 190.178 158.207L166.708 154.928L156.211 134.498C154.161 130.503 148.233 130.503 146.183 134.498Z" fill="white"/>
</mask>
<g mask="url(#mask2_234_24)">
<path d="M146.183 134.498L135.685 154.928L112.211 158.207C107.628 158.846 105.797 164.262 109.115 167.369L126.099 183.272L122.088 205.728C121.306 210.118 126.104 213.465 130.204 211.392L151.195 200.789L172.189 211.392C176.29 213.465 181.083 210.118 180.306 205.728L176.295 183.272L193.278 167.369C196.597 164.262 194.765 158.846 190.178 158.207L166.708 154.928L156.211 134.498C154.161 130.503 148.233 130.503 146.183 134.498Z" fill="#FF9E6E"/>
<path d="M146.183 134.498L135.685 154.928L112.211 158.207C107.628 158.846 105.797 164.262 109.115 167.369L126.099 183.272L122.088 205.728C121.306 210.118 126.104 213.465 130.204 211.392L151.195 200.789L172.189 211.392C176.29 213.465 181.083 210.118 180.306 205.728L176.295 183.272L193.278 167.369C196.597 164.262 194.765 158.846 190.178 158.207L166.708 154.928L156.211 134.498C154.161 130.503 148.233 130.503 146.183 134.498Z" fill="#FF9E6E"/>
</g>
</g>
<defs>
<clipPath id="clip0_234_24">
<rect width="512" height="344.234" fill="white"/>
</clipPath>
</defs>
</svg>
